<svg xmlns="http://www.w3.org/2000/svg" xmlns:xlink="http://www.w3.org/1999/xlink" viewBox="122 0 44 44"><defs><style>.a{clip-path:url(#b);}.b,.d{fill:none;}.b{stroke:#000;}.c{stroke:none;}.e{fill:#fff;}</style><clipPath id="b"><rect x="122" width="44" height="44"/></clipPath></defs><g id="a" class="a"><rect class="e" x="122" width="44" height="44"/><g transform="translate(119 -3)"><g class="b" transform="translate(5 5)"><circle class="c" cx="20" cy="20" r="20"/><circle class="d" cx="20" cy="20" r="19.5"/></g><path d="M12.143,1.006,6.191,1A1.194,1.194,0,0,0,5,2.191V12.906A1.194,1.194,0,0,0,6.191,14.1h5.953a1.194,1.194,0,0,0,1.191-1.191V2.191A1.189,1.189,0,0,0,12.143,1.006Zm0,10.709H6.191V3.381h5.953Zm-.6-3.572H9.762V5.167H8.572V8.143H6.786l2.381,2.381Z" transform="translate(15.833 17.452)"/></g></g></svg>