<svg xmlns="http://www.w3.org/2000/svg" xmlns:xlink="http://www.w3.org/1999/xlink" viewBox="61 0 44 44"><defs><style>.a{clip-path:url(#b);}.b,.d{fill:none;}.b{stroke:#000;}.c{stroke:none;}.e{fill:#fff;}</style><clipPath id="b"><rect x="61" width="44" height="44"/></clipPath></defs><g id="a" class="a"><rect class="e" x="61" width="44" height="44"/><g transform="translate(58 -3)"><g class="b" transform="translate(5 5)"><circle class="c" cx="20" cy="20" r="20"/><circle class="d" cx="20" cy="20" r="19.5"/></g><path d="M9.483,5.3A1.439,1.439,0,1,1,8.044,6.742,1.439,1.439,0,0,1,9.483,5.3m0,6.169c2.036,0,4.181,1,4.181,1.439v.754H5.3V12.91c0-.439,2.145-1.439,4.181-1.439M9.483,4a2.742,2.742,0,1,0,2.742,2.742A2.741,2.741,0,0,0,9.483,4Zm0,6.169C7.653,10.169,4,11.087,4,12.91v2.056H14.967V12.91C14.967,11.087,11.313,10.169,9.483,10.169Z" transform="translate(15.517 15.517)"/></g></g></svg>