<svg xmlns="http://www.w3.org/2000/svg" xmlns:xlink="http://www.w3.org/1999/xlink" viewBox="0 115 42 42">
  <defs>
    <style>
      .cls-1 {
        clip-path: url(#clip-Github);
      }

      .cls-2 {
        fill: #191717;
        fill-rule: evenodd;
      }

      .cls-3 {
        fill: #fff;
      }
    </style>
    <clipPath id="clip-Github">
      <rect y="115" width="42" height="42"/>
    </clipPath>
  </defs>
  <g id="Github" class="cls-1">
    <rect class="cls-3" y="115" width="42" height="42"/>
    <path id="Path_1" data-name="Path 1" class="cls-2" d="M19.939,0a19.976,19.976,0,0,0-6.361,38.9c.979.122,1.346-.489,1.346-.979V34.5C9.419,35.719,8.2,31.8,8.2,31.8a5.051,5.051,0,0,0-2.2-2.936c-1.835-1.223.122-1.223.122-1.223a4.262,4.262,0,0,1,3.058,2.08,4.234,4.234,0,0,0,5.749,1.713,4.26,4.26,0,0,1,1.223-2.691c-4.4-.489-9.052-2.2-9.052-9.908a7.583,7.583,0,0,1,2.08-5.382,7.243,7.243,0,0,1,.245-5.138s1.713-.489,5.5,2.08a17.093,17.093,0,0,1,5.015-.612,22.515,22.515,0,0,1,5.015.612c3.792-2.569,5.5-2.08,5.5-2.08a7.659,7.659,0,0,1,.245,5.26,7.912,7.912,0,0,1,2.08,5.382c0,7.706-4.648,9.3-9.052,9.786a4.672,4.672,0,0,1,1.346,3.67v5.5c0,.489.367,1.1,1.346.979A19.976,19.976,0,0,0,19.939,0Z" transform="translate(1 117)"/>
  </g>
</svg>
