<svg id="Layer_1" data-name="Layer 1" xmlns="http://www.w3.org/2000/svg" viewBox="0 0 400 400"><defs><style>.cls-1,.cls-2{fill:#7b9bad;}.cls-1{opacity:0.15;}.cls-3{fill:#fff;}</style></defs><title>logo</title><rect class="cls-1" x="32" y="32" width="336" height="336" rx="110.1" ry="110.1"/><rect class="cls-2" x="32" y="32" width="336" height="336" rx="99.65" ry="99.65" transform="translate(200 -82.84) rotate(45)"/><path class="cls-3" d="M247.3,136.5v9.21l17.16,2.35L252.9,189a66.22,66.22,0,0,1,8.64,15.18l17-56.12,11.05-2.35V136.5Zm-9.7,115.59-4.7-24.61-12.24-42.75c-.81-.57-1.63-1.09-2.47-1.58a35.07,35.07,0,0,0-18.1-4.67,40.77,40.77,0,0,0-10.58,1.34l-14.93,47.67-4.95,22.35-4-22.35-4.24-14.72q-.45,1.66-.86,3.4a132.07,132.07,0,0,0-3,30.28,126.75,126.75,0,0,0,1.24,18.28h16.45l25.36-82.44,24.94,82.44h16.07a156.84,156.84,0,0,0,1.27-20.81,130.62,130.62,0,0,0-.9-15.71Zm-42.94-88.72-1.07,3.42a74.4,74.4,0,0,1,8.62-.49,84.86,84.86,0,0,1,13.47,1L210.14,148l15.32-2.27V136.5H178v9.21L189.81,148Zm-37.08-17.67V136.5H111.62v9.21l11.05,2.35,17.72,57.73A72.59,72.59,0,0,1,152.08,188c.55-.6,1.09-1.19,1.67-1.76l-11-38.19Z"/></svg>