<svg xmlns="http://www.w3.org/2000/svg" xmlns:xlink="http://www.w3.org/1999/xlink" viewBox="40 79 30 30"><defs><style>.a{clip-path:url(#b);}.b{fill:#2292ff;}.c{fill:#fff;}</style><clipPath id="b"><rect x="40" y="79" width="30" height="30"/></clipPath></defs><g id="a" class="a"><rect class="c" x="40" y="79" width="30" height="30"/><path class="b" d="M11.484,5.777A1.964,1.964,0,1,1,9.519,7.742a1.964,1.964,0,0,1,1.964-1.964m0,8.419c2.778,0,5.706,1.366,5.706,1.964V17.19H5.777V16.161c0-.6,2.928-1.964,5.706-1.964m0-10.2a3.742,3.742,0,1,0,3.742,3.742A3.741,3.741,0,0,0,11.484,4Zm0,8.419C8.986,12.419,4,13.673,4,16.161v2.806H18.968V16.161C18.968,13.673,13.982,12.419,11.484,12.419Z" transform="translate(43.516 82.516)"/></g></svg>