<svg xmlns="http://www.w3.org/2000/svg" xmlns:xlink="http://www.w3.org/1999/xlink" viewBox="0 0 42 42">
  <defs>
    <style>
      .cls-1 {
        clip-path: url(#clip-Twitter);
      }

      .cls-2 {
        fill-rule: evenodd;
      }

      .cls-3 {
        fill: #fff;
      }
    </style>
    <clipPath id="clip-Twitter">
      <rect width="42" height="42"/>
    </clipPath>
  </defs>
  <g id="Twitter" class="cls-1">
    <rect class="cls-3" width="42" height="42"/>
    <path id="Fill-1" class="cls-2" d="M56.861,21.721a13.34,13.34,0,0,1-5.147,1.826v0a8.25,8.25,0,0,0-14.008,7.543h0a22.854,22.854,0,0,1-17.012-8.563,8.256,8.256,0,0,0,2.5,10.9,5.3,5.3,0,0,1-3.6-.934c-.056,2.875,1.326,6.684,6.366,8.065a6.534,6.534,0,0,1-3.436.261c.262,2.427,3.66,5.6,7.376,5.6-1.324,1.532-6.308,4.311-11.9,3.427A24.8,24.8,0,0,0,30.909,53.5,22.925,22.925,0,0,0,54,29.4c0-.015,0-.029,0-.045,0-.034,0-.068,0-.1s0-.08,0-.12A14.236,14.236,0,0,0,58,24.9a14.461,14.461,0,0,1-4.576,1.3,8.767,8.767,0,0,0,3.437-4.482" transform="translate(-17 -16)"/>
  </g>
</svg>
